<?xml version="1.0" encoding="UTF-8"?>
<!DOCTYPE svg PUBLIC "-//W3C//DTD SVG 1.1//EN" "http://www.w3.org/Graphics/SVG/1.1/DTD/svg11.dtd">
<svg version="1.1" xmlns="http://www.w3.org/2000/svg" xmlns:xlink="http://www.w3.org/1999/xlink" x="0" y="0" width="144" height="144" viewBox="0, 0, 144, 144">
  <g id="Layer_1">
    <g>
      <path d="M24,12 L121,12 C127.627,12 133,17.373 133,24 L133,121 C133,127.627 127.627,133 121,133 L24,133 C17.373,133 12,127.627 12,121 L12,24 C12,17.373 17.373,12 24,12 z" fill="#FFFFFF"/>
      <path d="M24,12 L121,12 C127.627,12 133,17.373 133,24 L133,121 C133,127.627 127.627,133 121,133 L24,133 C17.373,133 12,127.627 12,121 L12,24 C12,17.373 17.373,12 24,12 z" fill-opacity="0" stroke="#000000" stroke-width="1"/>
    </g>
    <path d="M12,40.086 L20.829,40.086" fill-opacity="0" stroke="#000000" stroke-width="1"/>
    <path d="M20.829,40.086 L20.829,31.086" fill-opacity="0" stroke="#000000" stroke-width="1"/>
    <path d="M20.829,31.086 L53.329,31.086" fill-opacity="0" stroke="#000000" stroke-width="1"/>
    <path d="M53.329,31.086 L53.329,40.086" fill-opacity="0" stroke="#000000" stroke-width="1"/>
    <path d="M53.329,40.086 L133,40.086" fill-opacity="0" stroke="#000000" stroke-width="1"/>
    <g>
      <path d="M42.579,37.086 L42.579,49.711 L53.329,49.711 L53.329,59.711 L42.579,59.711 L42.579,72.336 L31.579,72.336 L31.579,59.711 L20.829,59.711 L20.829,49.711 L31.579,49.711 L31.579,37.086 L42.579,37.086 z" fill="#4CEC00"/>
      <path d="M42.579,37.086 L42.579,49.711 L53.329,49.711 L53.329,59.711 L42.579,59.711 L42.579,72.336 L31.579,72.336 L31.579,59.711 L20.829,59.711 L20.829,49.711 L31.579,49.711 L31.579,37.086 L42.579,37.086 z" fill-opacity="0" stroke="#000000" stroke-width="1"/>
    </g>
    <text transform="matrix(1, 0, 0, 1, 76.25, 98.208)">
      <tspan x="-60.25" y="7.75" font-family="DINAlternate-Bold" font-size="24" fill="#000000" fill-opacity="0.986">ASSEMBLY</tspan>
    </text>
  </g>
</svg>
